<?xml version="1.0" encoding="UTF-8"?>
<!DOCTYPE svg PUBLIC "-//W3C//DTD SVG 1.1//EN" "http://www.w3.org/Graphics/SVG/1.1/DTD/svg11.dtd">
<!-- Creator: CorelDRAW X8 -->
<svg xmlns="http://www.w3.org/2000/svg" xml:space="preserve" width="210mm" height="140mm" version="1.1" style="shape-rendering:geometricPrecision; text-rendering:geometricPrecision; image-rendering:optimizeQuality; fill-rule:evenodd; clip-rule:evenodd"
viewBox="0 0 21000 14000"
 xmlns:xlink="http://www.w3.org/1999/xlink">
 <defs>
  <style type="text/css">
   <![CDATA[
    .fil0 {fill:#05A8CB}
    .fil1 {fill:#8DC342}
    .fil3 {fill:#05A8CB;fill-rule:nonzero}
    .fil2 {fill:#8DC342;fill-rule:nonzero}
   ]]>
  </style>
 </defs>
 <g id="Camada_x0020_1">
  <metadata id="CorelCorpID_0Corel-Layer"/>
  <g id="_314142196128">
   <g>
    <path class="fil0" d="M10528 3708l1207 712 43 1035 518 -367 1056 690 -43 1315 -137 209 0 -1400 -119 0 0 1580 -182 277 0 -1857 -119 0 0 2032 -887 1057 -65 -3062 -221 113 0 -98 -852 -536 0 173 787 495 -555 284 22 3450 -453 367 -453 -367 22 -3450 -555 -284 786 -495 0 -173 -851 536 0 98 -221 -113 -65 3062 -888 -1057 0 -2032 -118 0 0 1857 -183 -277 0 -1580 -118 0 0 1400 -137 -209 -44 -1315 1057 -690 517 367 43 -1035 1208 -712zm-933 4054l-167 0 0 264 167 0 0 -264zm0 380l-167 0 0 264 167 0 0 -264zm291 0l-167 0 0 264 167 0 0 -264zm0 -380l-167 0 0 264 167 0 0 -264zm-291 -1084l-167 0 0 265 167 0 0 -265zm0 380l-167 0 0 264 167 0 0 -264zm291 0l-167 0 0 264 167 0 0 -264zm0 -380l-167 0 0 265 167 0 0 -265zm442 -1732l-851 535 0 173 851 -536 0 -172zm0 -417l-851 536 0 172 851 -535 0 -173zm0 -416l-851 535 0 173 851 -536 0 -172zm-1574 1227l490 278 0 224 -490 393 0 -895zm2707 2422l167 0 0 264 -167 0 0 -264zm0 380l167 0 0 264 -167 0 0 -264zm-292 0l167 0 0 264 -167 0 0 -264zm0 -380l167 0 0 264 -167 0 0 -264zm292 -1084l167 0 0 265 -167 0 0 -265zm0 380l167 0 0 264 -167 0 0 -264zm-292 0l167 0 0 264 -167 0 0 -264zm0 -380l167 0 0 265 -167 0 0 -265zm-442 -1732l852 535 0 173 -852 -536 0 -172zm0 -417l852 536 0 172 -852 -535 0 -173zm0 -416l852 535 0 173 -852 -536 0 -172zm1574 1227l-489 278 0 224 489 393 0 -895z"/>
    <path class="fil1" d="M10500 1261c786,0 1512,258 2099,692l-503 471c-456,-308 -1005,-488 -1596,-488 -575,0 -1111,170 -1559,463l-505 -471c581,-420 1293,-667 2064,-667zm14 -1170c1153,0 2207,423 3016,1121l-448 419c-696,-581 -1591,-930 -2568,-930 -980,0 -1878,351 -2574,935l-448 -419c810,-701 1866,-1126 3022,-1126zm2463 2186c649,640 1051,1529 1051,2513 0,692 -200,1339 -545,1884l35 -1058 -243 -159c51,-214 79,-438 79,-667 0,-806 -334,-1533 -871,-2052l494 -461zm-4429 432c-555,520 -902,1260 -902,2081 0,233 28,460 81,677l-228 149 36 1086c-356,-551 -563,-1207 -563,-1912 0,-999 415,-1901 1082,-2543l494 462z"/>
   </g>
   <path class="fil2" d="M1766 13909c-249,0 -479,-62 -689,-187 -210,-124 -376,-294 -500,-507 -123,-214 -184,-448 -184,-702 0,-252 61,-485 184,-699 124,-214 290,-383 500,-509 210,-126 440,-189 689,-189 199,0 387,40 562,121 175,80 326,190 453,330 10,11 15,24 15,39 0,18 -6,33 -19,43l-280 241c-13,13 -27,20 -43,20 -16,0 -29,-7 -39,-20 -83,-91 -181,-161 -294,-212 -112,-50 -231,-76 -355,-76 -161,0 -310,41 -446,123 -136,82 -244,192 -325,332 -80,140 -120,292 -120,456 0,163 40,315 120,455 81,140 189,250 325,332 136,82 285,123 446,123 119,0 232,-23 338,-68 106,-46 201,-110 284,-193 23,-21 48,-31 74,-31 23,0 41,6 54,19l74 63 156 140c26,18 39,42 39,74 0,18 -7,33 -20,46 -127,138 -277,245 -449,321 -173,77 -356,115 -550,115z"/>
   <path id="1" class="fil2" d="M3156 13874c-21,0 -38,-7 -53,-22 -14,-14 -21,-30 -21,-48l0 -2583c0,-20 8,-38 23,-52 16,-14 33,-22 51,-22l389 0c18,0 34,8 49,22 14,14 21,32 21,52l0 2583c0,18 -7,34 -20,48 -12,15 -29,22 -50,22l-389 0z"/>
   <path id="2" class="fil2" d="M4247 13866c-34,0 -51,-17 -51,-51l0 -2100c0,-26 -9,-47 -27,-64 -18,-17 -40,-25 -66,-25l-222 0c-13,0 -24,-5 -35,-16 -10,-10 -15,-23 -15,-39l0 -361c0,-16 5,-29 15,-39 11,-11 22,-16 35,-16l1700 0c13,0 25,5 35,16 10,10 16,23 16,39l0 361c0,16 -6,29 -16,39 -10,11 -22,16 -35,16l-727 0c-26,0 -48,9 -66,27 -19,18 -28,39 -28,62l0 2100c0,16 -5,28 -15,37 -11,9 -22,14 -35,14l-463 0z"/>
   <path id="3" class="fil2" d="M5816 11225c-5,-10 -7,-21 -7,-31 0,-31 19,-47 58,-47l369 0c44,0 72,4 84,12 12,8 23,21 33,39l58 109c19,36 100,190 245,463 16,36 24,66 24,89 0,29 -8,58 -24,90l-163 299c-13,29 -32,43 -58,43 -24,0 -42,-13 -55,-39l-564 -1027zm953 2649c-18,0 -34,-7 -48,-22 -15,-14 -22,-30 -22,-48l0 -895c0,-85 25,-191 76,-317 51,-125 128,-279 231,-461 37,-64 151,-278 343,-641l144 -273c10,-20 23,-37 38,-50 16,-13 41,-20 74,-20l374 0c46,0 70,13 70,39 0,11 -4,24 -12,39l-813 1486c-26,47 -40,102 -43,167l0 268 0 658c0,18 -6,34 -19,48 -13,15 -30,22 -51,22l-342 0z"/>
   <path id="4" class="fil3" d="M8272 13014c-15,0 -29,-6 -40,-17 -12,-12 -18,-26 -18,-41l0 -1750c0,-16 6,-29 18,-41 11,-12 25,-18 40,-18l405 0c15,0 29,6 41,18 11,12 17,25 17,41l0 1750c0,15 -6,29 -17,41 -12,11 -26,17 -41,17l-405 0zm1459 860c-18,0 -34,-7 -49,-22 -14,-14 -21,-30 -21,-48l0 -938c0,-20 -7,-37 -20,-50 -13,-13 -29,-20 -50,-20l-486 0c-18,0 -35,-7 -49,-21 -14,-14 -21,-30 -21,-49l0 -330c0,-21 7,-38 21,-51 14,-13 31,-19 49,-19l486 0c21,0 37,-7 50,-22 13,-14 20,-30 20,-48l0 -1039c0,-18 7,-34 21,-48 15,-14 31,-22 49,-22l397 0c18,0 34,8 48,22 14,14 22,30 22,48l0 2587c0,18 -7,34 -20,48 -13,15 -30,22 -50,22l-397 0z"/>
   <path id="5" class="fil3" d="M10546 11630c-18,0 -35,-7 -49,-22 -14,-14 -21,-31 -21,-52l0 -335c0,-20 7,-37 21,-50 14,-13 31,-20 49,-20l1804 0c21,0 39,7 53,22 14,14 21,30 21,48l0 335c0,18 -7,35 -21,50 -14,16 -32,24 -53,24l-1804 0zm0 2244c-18,0 -35,-7 -49,-22 -14,-14 -21,-30 -21,-48l0 -1797c0,-21 7,-38 21,-51 14,-13 31,-19 49,-19l330 0c21,0 38,6 51,19 13,13 19,30 19,51l0 280c0,49 34,74 101,74l981 0c18,0 33,6 46,17 13,12 20,27 20,45l0 335c0,18 -7,33 -20,44 -13,12 -28,18 -46,18l-992 0c-60,0 -90,27 -90,81l0 424c0,19 8,35 24,51 15,16 32,23 50,23l1338 0c21,0 38,7 51,20 13,13 19,30 19,50l0 335c0,18 -6,34 -19,48 -13,15 -30,22 -51,22l-1812 0z"/>
   <path id="6" class="fil3" d="M12768 13874c-20,0 -39,-8 -56,-24 -17,-15 -25,-35 -25,-58l0 -2563c0,-21 8,-39 25,-56 17,-17 36,-26 56,-26l421 0c23,0 42,9 58,26 15,17 23,35 23,56l0 2069c0,21 8,40 24,57 15,16 33,25 54,25l941 0c24,0 43,8 59,23 15,16 23,34 23,55l0 334c0,23 -8,43 -23,58 -16,16 -35,24 -59,24l-1521 0z"/>
   <path id="7" class="fil3" d="M14664 13874c-18,0 -34,-7 -48,-22 -14,-14 -22,-30 -22,-48l0 -1358c0,-20 8,-38 22,-52 14,-14 30,-21 48,-21l860 0c99,0 183,-35 255,-105 71,-71 107,-155 107,-253 0,-101 -36,-187 -107,-257 -72,-70 -156,-105 -255,-105l-860 0c-18,0 -34,-7 -48,-21 -14,-15 -22,-32 -22,-53l0 -358c0,-20 8,-38 22,-52 14,-14 30,-22 48,-22l860 0c156,0 300,39 432,117 132,78 237,184 315,317 78,134 116,278 116,434 0,155 -38,299 -116,431 -78,133 -183,238 -315,315 -132,78 -276,117 -432,117l-412 0c-29,0 -48,4 -59,12 -10,8 -15,23 -15,46l0 868c0,21 -7,37 -22,50 -14,13 -31,20 -52,20l-300 0z"/>
   <path id="8" class="fil3" d="M16619 11630c-18,0 -34,-7 -49,-22 -14,-14 -21,-31 -21,-52l0 -335c0,-20 7,-37 21,-50 15,-13 31,-20 49,-20l1805 0c20,0 38,7 52,22 14,14 21,30 21,48l0 335c0,18 -7,35 -21,50 -14,16 -32,24 -52,24l-1805 0zm0 2244c-18,0 -34,-7 -49,-22 -14,-14 -21,-30 -21,-48l0 -1797c0,-21 7,-38 21,-51 15,-13 31,-19 49,-19l330 0c21,0 38,6 51,19 13,13 19,30 19,51l0 280c0,49 34,74 102,74l980 0c18,0 33,6 46,17 13,12 20,27 20,45l0 335c0,18 -7,33 -20,44 -13,12 -28,18 -46,18l-992 0c-60,0 -90,27 -90,81l0 424c0,19 8,35 24,51 15,16 32,23 50,23l1338 0c21,0 38,7 51,20 13,13 19,30 19,50l0 335c0,18 -6,34 -19,48 -13,15 -30,22 -51,22l-1812 0z"/>
   <path id="9" class="fil3" d="M18814 13874c-20,0 -38,-7 -52,-20 -14,-13 -21,-29 -21,-50l0 -1358c0,-20 7,-38 21,-52 14,-14 32,-21 52,-21l805 0c104,0 192,-35 263,-105 71,-71 107,-155 107,-253 0,-101 -36,-187 -107,-257 -71,-70 -159,-105 -263,-105l-326 0c-29,0 -53,10 -72,29 -20,20 -29,42 -29,68l0 97c0,26 -9,49 -28,69 -18,19 -41,29 -70,29l-256 0c-26,0 -49,-10 -68,-29 -20,-20 -29,-43 -29,-69l0 -626c0,-20 7,-38 21,-52 14,-14 32,-22 52,-22l805 0c161,0 309,39 444,117 135,78 242,183 321,315 79,132 118,278 118,436 0,135 -30,262 -91,381 -61,119 -145,219 -251,299 -15,11 -23,24 -23,39 0,16 1,29 4,39l451 1007c10,19 15,35 15,51 0,29 -18,43 -54,43l-319 0c-29,0 -50,-3 -64,-8 -14,-5 -27,-18 -37,-39l-405 -910c-7,-16 -18,-26 -31,-31 -13,-5 -39,-8 -78,-8l-330 0c-31,0 -55,5 -72,14 -17,9 -25,28 -25,56l0 856c0,21 -7,37 -22,50 -14,13 -31,20 -52,20l-304 0z"/>
  </g>
 </g>
</svg>
