<?xml version="1.0" encoding="UTF-8"?>
<!DOCTYPE svg PUBLIC "-//W3C//DTD SVG 1.1//EN" "http://www.w3.org/Graphics/SVG/1.1/DTD/svg11.dtd">
<!-- Creator: CorelDRAW X8 -->
<svg xmlns="http://www.w3.org/2000/svg" xml:space="preserve" width="210mm" height="50mm" version="1.1" style="shape-rendering:geometricPrecision; text-rendering:geometricPrecision; image-rendering:optimizeQuality; fill-rule:evenodd; clip-rule:evenodd"
viewBox="0 0 21000 5000"
 xmlns:xlink="http://www.w3.org/1999/xlink">
 <defs>
  <style type="text/css">
   <![CDATA[
    .fil0 {fill:#05A8CB}
    .fil1 {fill:#8DC342}
    .fil3 {fill:#05A8CB;fill-rule:nonzero}
    .fil2 {fill:#8DC342;fill-rule:nonzero}
   ]]>
  </style>
 </defs>
 <g id="Camada_x0020_1">
  <metadata id="CorelCorpID_0Corel-Layer"/>
  <g id="_314142190016">
   <g>
    <path class="fil0" d="M2012 2049l410 241 14 351 176 -124 358 234 -14 446 -47 71 0 -475 -40 0 0 536 -62 94 0 -630 -40 0 0 690 -301 358 -22 -1039 -75 39 0 -34 -289 -182 0 59 267 168 -189 97 8 1170 -154 125 -154 -125 8 -1170 -189 -97 267 -168 0 -59 -289 182 0 34 -75 -39 -22 1039 -301 -358 0 -690 -40 0 0 630 -62 -94 0 -536 -40 0 0 475 -47 -71 -15 -446 359 -234 176 124 14 -351 410 -241zm-317 1375l-56 0 0 90 56 0 0 -90zm0 129l-56 0 0 90 56 0 0 -90zm99 0l-56 0 0 90 56 0 0 -90zm0 -129l-56 0 0 90 56 0 0 -90zm-99 -368l-56 0 0 90 56 0 0 -90zm0 129l-56 0 0 90 56 0 0 -90zm99 0l-56 0 0 90 56 0 0 -90zm0 -129l-56 0 0 90 56 0 0 -90zm150 -588l-289 182 0 59 289 -182 0 -59zm0 -141l-289 182 0 58 289 -181 0 -59zm0 -141l-289 182 0 58 289 -182 0 -58zm-534 416l166 95 0 75 -166 134 0 -304zm919 822l56 0 0 90 -56 0 0 -90zm0 129l56 0 0 90 -56 0 0 -90zm-99 0l56 0 0 90 -56 0 0 -90zm0 -129l56 0 0 90 -56 0 0 -90zm99 -368l56 0 0 90 -56 0 0 -90zm0 129l56 0 0 90 -56 0 0 -90zm-99 0l56 0 0 90 -56 0 0 -90zm0 -129l56 0 0 90 -56 0 0 -90zm-150 -588l289 182 0 59 -289 -182 0 -59zm0 -141l289 182 0 58 -289 -181 0 -59zm0 -141l289 182 0 58 -289 -182 0 -58zm534 416l-166 95 0 75 166 134 0 -304z"/>
    <path class="fil1" d="M2002 1218c267,0 514,87 713,235l-171 160c-155,-105 -341,-166 -542,-166 -195,0 -377,58 -529,157l-171 -160c197,-142 439,-226 700,-226zm5 -397c391,0 749,143 1024,380l-152 143c-236,-197 -540,-316 -872,-316 -332,0 -637,119 -873,317l-152 -142c274,-238 633,-382 1025,-382zm836 742c220,217 357,519 357,853 0,235 -68,454 -185,639l12 -359 -83 -54c18,-73 27,-149 27,-226 0,-274 -113,-521 -295,-697l167 -156zm-1503 146c-188,177 -306,428 -306,707 0,79 10,156 28,229l-78 51 12 369c-121,-187 -191,-410 -191,-649 0,-339 141,-646 367,-863l168 156z"/>
   </g>
   <path class="fil2" d="M4963 3687c-206,0 -396,-52 -570,-155 -173,-103 -311,-242 -413,-419 -102,-177 -152,-371 -152,-581 0,-208 50,-400 152,-577 102,-177 240,-317 413,-421 174,-104 364,-156 570,-156 165,0 319,33 464,100 145,66 270,157 375,273 8,9 13,19 13,32 0,15 -6,27 -17,36l-231 199c-11,11 -23,16 -35,16 -13,0 -24,-5 -33,-16 -68,-75 -149,-134 -242,-175 -94,-42 -192,-63 -294,-63 -133,0 -256,34 -369,101 -112,68 -202,159 -268,275 -67,116 -100,241 -100,376 0,135 33,261 100,377 66,115 156,207 268,274 113,68 236,102 369,102 98,0 191,-19 279,-57 88,-37 166,-90 235,-159 19,-17 40,-25 61,-25 19,0 34,5 45,16l61 51 129 116c21,15 32,35 32,61 0,15 -5,28 -16,39 -105,113 -229,202 -372,265 -142,63 -294,95 -454,95z"/>
   <path id="1" class="fil2" d="M6112 3658c-17,0 -32,-6 -43,-18 -12,-12 -18,-25 -18,-40l0 -2135c0,-17 6,-32 19,-43 13,-12 27,-18 42,-18l321 0c15,0 29,6 41,18 11,11 17,26 17,43l0 2135c0,15 -5,28 -16,40 -10,12 -24,18 -42,18l-321 0z"/>
   <path id="2" class="fil2" d="M7014 3651c-28,0 -42,-14 -42,-42l0 -1736c0,-21 -8,-39 -23,-53 -15,-14 -33,-21 -54,-21l-183 0c-11,0 -21,-4 -29,-13 -9,-8 -13,-19 -13,-32l0 -299c0,-13 4,-23 13,-32 8,-8 18,-13 29,-13l1405 0c10,0 20,5 29,13 8,9 12,19 12,32l0 299c0,13 -4,24 -12,32 -9,9 -19,13 -29,13l-602 0c-21,0 -39,8 -54,23 -15,15 -23,32 -23,51l0 1736c0,13 -4,23 -13,31 -8,7 -18,11 -29,11l-382 0z"/>
   <path id="3" class="fil2" d="M8311 1468c-4,-8 -6,-17 -6,-26 0,-25 16,-38 48,-38l305 0c37,0 60,3 69,9 10,7 19,18 28,33l48 90c15,30 83,157 203,382 12,30 19,55 19,74 0,24 -7,48 -19,74l-135 248c-11,23 -27,35 -49,35 -19,0 -34,-11 -45,-32l-466 -849zm788 2190c-15,0 -29,-6 -40,-18 -12,-12 -18,-25 -18,-40l0 -740c0,-70 21,-158 63,-262 41,-104 105,-231 191,-381 30,-53 124,-230 283,-530l119 -225c8,-17 19,-31 32,-42 13,-11 33,-16 61,-16l309 0c38,0 58,11 58,32 0,9 -4,19 -10,32l-672 1228c-21,39 -33,85 -35,139l0 221 0 544c0,15 -6,28 -16,40 -11,12 -25,18 -42,18l-283 0z"/>
   <path id="4" class="fil3" d="M10342 2947c-13,0 -25,-5 -34,-14 -10,-10 -15,-21 -15,-34l0 -1447c0,-13 5,-24 15,-34 9,-9 21,-14 34,-14l334 0c13,0 24,5 34,14 9,10 14,21 14,34l0 1447c0,13 -5,24 -14,34 -10,9 -21,14 -34,14l-334 0zm1205 711c-15,0 -28,-6 -40,-18 -12,-12 -18,-25 -18,-40l0 -775c0,-17 -5,-31 -16,-42 -10,-11 -24,-16 -42,-16l-401 0c-15,0 -29,-6 -41,-18 -11,-11 -17,-25 -17,-40l0 -273c0,-17 6,-31 17,-42 12,-11 26,-16 41,-16l401 0c18,0 32,-6 42,-18 11,-11 16,-25 16,-40l0 -858c0,-15 6,-29 18,-40 12,-12 25,-18 40,-18l328 0c15,0 29,6 40,18 12,11 18,25 18,40l0 2138c0,15 -5,28 -16,40 -11,12 -25,18 -42,18l-328 0z"/>
   <path id="5" class="fil3" d="M12221 1803c-15,0 -29,-6 -40,-18 -12,-12 -18,-26 -18,-44l0 -276c0,-17 6,-31 18,-42 11,-11 25,-16 40,-16l1492 0c17,0 31,6 43,18 12,12 18,25 18,40l0 276c0,15 -6,29 -18,42 -12,13 -26,20 -43,20l-1492 0zm0 1855c-15,0 -29,-6 -40,-18 -12,-12 -18,-25 -18,-40l0 -1486c0,-17 6,-31 18,-41 11,-11 25,-16 40,-16l273 0c17,0 31,5 42,16 11,10 16,24 16,41l0 232c0,41 28,61 84,61l810 0c15,0 28,5 38,14 11,10 16,22 16,37l0 277c0,15 -5,27 -16,37 -10,10 -23,14 -38,14l-820 0c-49,0 -74,23 -74,68l0 350c0,15 6,29 19,42 13,13 27,19 42,19l1106 0c17,0 31,6 42,16 11,11 16,25 16,42l0 277c0,15 -5,28 -16,40 -11,12 -25,18 -42,18l-1498 0z"/>
   <path id="6" class="fil3" d="M14058 3658c-17,0 -32,-7 -46,-20 -14,-12 -21,-29 -21,-48l0 -2119c0,-17 7,-32 21,-46 14,-14 29,-21 46,-21l347 0c20,0 36,7 49,21 13,14 19,29 19,46l0 1711c0,17 6,33 19,46 13,14 28,21 45,21l778 0c20,0 36,7 49,20 12,12 19,27 19,45l0 276c0,19 -7,36 -19,48 -13,13 -29,20 -49,20l-1257 0z"/>
   <path id="7" class="fil3" d="M15626 3658c-15,0 -29,-6 -41,-18 -11,-12 -17,-25 -17,-40l0 -1122c0,-17 6,-32 17,-44 12,-11 26,-17 41,-17l710 0c82,0 152,-29 211,-87 59,-58 88,-128 88,-209 0,-84 -29,-155 -88,-212 -59,-58 -129,-87 -211,-87l-710 0c-15,0 -29,-6 -41,-18 -11,-12 -17,-26 -17,-43l0 -296c0,-17 6,-32 17,-43 12,-12 26,-18 41,-18l710 0c129,0 248,32 357,96 109,65 196,152 261,262 64,111 96,230 96,359 0,128 -32,247 -96,357 -65,109 -152,196 -261,260 -109,64 -228,97 -357,97l-341 0c-23,0 -39,3 -48,9 -8,7 -13,20 -13,39l0 717c0,17 -6,31 -17,42 -12,10 -27,16 -44,16l-247 0z"/>
   <path id="8" class="fil3" d="M17241 1803c-15,0 -28,-6 -40,-18 -12,-12 -18,-26 -18,-44l0 -276c0,-17 6,-31 18,-42 12,-11 25,-16 40,-16l1492 0c17,0 32,6 44,18 11,12 17,25 17,40l0 276c0,15 -6,29 -17,42 -12,13 -27,20 -44,20l-1492 0zm0 1855c-15,0 -28,-6 -40,-18 -12,-12 -18,-25 -18,-40l0 -1486c0,-17 6,-31 18,-41 12,-11 25,-16 40,-16l274 0c17,0 31,5 41,16 11,10 16,24 16,41l0 232c0,41 28,61 84,61l810 0c15,0 28,5 39,14 11,10 16,22 16,37l0 277c0,15 -5,27 -16,37 -11,10 -24,14 -39,14l-820 0c-49,0 -74,23 -74,68l0 350c0,15 7,29 20,42 13,13 27,19 42,19l1106 0c17,0 31,6 41,16 11,11 16,25 16,42l0 277c0,15 -5,28 -16,40 -10,12 -24,18 -41,18l-1499 0z"/>
   <path id="9" class="fil3" d="M19056 3658c-17,0 -31,-6 -43,-16 -12,-11 -18,-25 -18,-42l0 -1122c0,-17 6,-32 18,-44 12,-11 26,-17 43,-17l666 0c86,0 158,-29 217,-87 59,-58 88,-128 88,-209 0,-84 -29,-155 -88,-212 -59,-58 -131,-87 -217,-87l-270 0c-24,0 -44,8 -60,24 -16,16 -24,35 -24,56l0 81c0,21 -7,40 -22,56 -15,16 -35,24 -58,24l-212 0c-22,0 -41,-8 -57,-24 -16,-16 -24,-35 -24,-56l0 -518c0,-17 6,-32 18,-43 12,-12 26,-18 43,-18l666 0c133,0 255,32 366,96 112,65 200,151 266,261 65,109 98,229 98,360 0,111 -26,216 -76,315 -50,98 -119,181 -207,247 -13,9 -20,20 -20,33 0,12 1,23 4,32l373 833c8,15 12,28 12,41 0,24 -15,36 -45,36l-263 0c-24,0 -41,-2 -53,-7 -12,-4 -22,-15 -31,-32l-334 -752c-7,-13 -15,-22 -26,-26 -11,-4 -32,-6 -64,-6l-273 0c-26,0 -46,3 -60,11 -14,7 -21,23 -21,46l0 708c0,17 -6,31 -18,42 -11,10 -26,16 -43,16l-251 0z"/>
  </g>
 </g>
</svg>
